<svg width="98" height="16" viewBox="0 0 98 16" fill="none" xmlns="http://www.w3.org/2000/svg">
<path d="M97.2987 4.09082L93.2646 14.9999H91.56L87.5259 4.09082H89.3441L92.3555 12.784H92.4691L95.4805 4.09082H97.2987Z" fill="#F7F7F7"/>
<path d="M82.6435 15.2274C81.5923 15.2274 80.6856 14.9954 79.9233 14.5314C79.1657 14.0626 78.581 13.4092 78.169 12.5711C77.7618 11.7283 77.5582 10.7482 77.5582 9.63079C77.5582 8.51337 77.7618 7.52852 78.169 6.67625C78.581 5.81924 79.1539 5.15163 79.8878 4.67341C80.6264 4.19045 81.4882 3.94897 82.473 3.94897C83.0412 3.94897 83.6023 4.04367 84.1562 4.23306C84.7102 4.42246 85.2145 4.73022 85.669 5.15636C86.1236 5.57776 86.4858 6.13647 86.7557 6.8325C87.0256 7.52852 87.1605 8.38553 87.1605 9.40352V10.1137H78.7514V8.66488H85.456C85.456 8.04935 85.3329 7.50011 85.0866 7.01716C84.8452 6.5342 84.4995 6.15305 84.0497 5.87369C83.6046 5.59433 83.0791 5.45466 82.473 5.45466C81.8054 5.45466 81.2277 5.62038 80.74 5.95181C80.2571 6.27852 79.8854 6.70466 79.625 7.23022C79.3646 7.75579 79.2344 8.31924 79.2344 8.92056V9.88647C79.2344 10.7103 79.3764 11.4087 79.6605 11.9816C79.9493 12.5498 80.3494 12.9831 80.8608 13.2814C81.3722 13.5749 81.9664 13.7217 82.6435 13.7217C83.0838 13.7217 83.4815 13.6601 83.8366 13.537C84.1965 13.4092 84.5066 13.2198 84.767 12.9689C85.0275 12.7132 85.2287 12.3959 85.3707 12.0172L86.99 12.4717C86.8196 13.0209 86.5331 13.5039 86.1307 13.9206C85.7282 14.3325 85.231 14.6545 84.6392 14.8865C84.0473 15.1137 83.3821 15.2274 82.6435 15.2274Z" fill="#F7F7F7"/>
<path d="M72.0028 15.2274C70.9517 15.2274 70.045 14.9954 69.2827 14.5314C68.5251 14.0626 67.9403 13.4092 67.5284 12.5711C67.1212 11.7283 66.9176 10.7482 66.9176 9.63079C66.9176 8.51337 67.1212 7.52852 67.5284 6.67625C67.9403 5.81924 68.5132 5.15163 69.2471 4.67341C69.9858 4.19045 70.8475 3.94897 71.8324 3.94897C72.4006 3.94897 72.9616 4.04367 73.5156 4.23306C74.0696 4.42246 74.5739 4.73022 75.0284 5.15636C75.4829 5.57776 75.8452 6.13647 76.115 6.8325C76.3849 7.52852 76.5199 8.38553 76.5199 9.40352V10.1137H68.1108V8.66488H74.8153C74.8153 8.04935 74.6922 7.50011 74.446 7.01716C74.2045 6.5342 73.8589 6.15305 73.4091 5.87369C72.964 5.59433 72.4384 5.45466 71.8324 5.45466C71.1648 5.45466 70.5871 5.62038 70.0994 5.95181C69.6165 6.27852 69.2448 6.70466 68.9844 7.23022C68.7239 7.75579 68.5937 8.31924 68.5937 8.92056V9.88647C68.5937 10.7103 68.7358 11.4087 69.0199 11.9816C69.3087 12.5498 69.7088 12.9831 70.2202 13.2814C70.7315 13.5749 71.3257 13.7217 72.0028 13.7217C72.4432 13.7217 72.8409 13.6601 73.196 13.537C73.5559 13.4092 73.866 13.2198 74.1264 12.9689C74.3868 12.7132 74.5881 12.3959 74.7301 12.0172L76.3494 12.4717C76.179 13.0209 75.8925 13.5039 75.49 13.9206C75.0876 14.3325 74.5904 14.6545 73.9986 14.8865C73.4067 15.1137 72.7415 15.2274 72.0028 15.2274Z" fill="#F7F7F7"/>
<path d="M59.5618 11.0228L59.5334 8.94891H59.8743L64.647 4.09095H66.7209L61.6356 9.233H61.4936L59.5618 11.0228ZM57.9993 15V0.45459H59.6754V15H57.9993ZM64.9311 15L60.6697 9.60232L61.8629 8.43754L67.0618 15H64.9311Z" fill="#F7F7F7"/>
<path d="M54.2532 15V4.09091H55.9293V15H54.2532ZM55.1055 2.27273C54.7788 2.27273 54.497 2.16146 54.2603 1.93892C54.0283 1.71638 53.9123 1.44886 53.9123 1.13636C53.9123 0.823864 54.0283 0.556344 54.2603 0.333806C54.497 0.111269 54.7788 0 55.1055 0C55.4322 0 55.7115 0.111269 55.9435 0.333806C56.1803 0.556344 56.2987 0.823864 56.2987 1.13636C56.2987 1.44886 56.1803 1.71638 55.9435 1.93892C55.7115 2.16146 55.4322 2.27273 55.1055 2.27273Z" fill="#F7F7F7"/>
<path d="M52.7319 4.09093V5.51139H47.0785V4.09093H52.7319ZM48.7262 1.47729H50.4024V11.875C50.4024 12.3485 50.471 12.7036 50.6083 12.9404C50.7504 13.1724 50.9303 13.3286 51.1481 13.4091C51.3706 13.4849 51.605 13.5228 51.8512 13.5228C52.0359 13.5228 52.1874 13.5133 52.3058 13.4943C52.4241 13.4707 52.5188 13.4517 52.5899 13.4375L52.9308 14.9432C52.8171 14.9858 52.6585 15.0284 52.4549 15.071C52.2513 15.1184 51.9933 15.1421 51.6808 15.1421C51.2073 15.1421 50.7433 15.0403 50.2887 14.8367C49.8389 14.6331 49.4649 14.3229 49.1666 13.9063C48.873 13.4896 48.7262 12.964 48.7262 12.3296V1.47729Z" fill="#F7F7F7"/>
<path d="M45.6832 0.45459V15H43.9219V0.45459H45.6832Z" fill="#F7F7F7"/>
<path d="M36.9996 0.45459V15H35.3235V0.45459H36.9996Z" fill="#F7F7F7"/>
<path d="M31.5774 15V4.09091H33.2536V15H31.5774ZM32.4297 2.27273C32.103 2.27273 31.8213 2.16146 31.5845 1.93892C31.3525 1.71638 31.2365 1.44886 31.2365 1.13636C31.2365 0.823864 31.3525 0.556344 31.5845 0.333806C31.8213 0.111269 32.103 0 32.4297 0C32.7564 0 33.0358 0.111269 33.2678 0.333806C33.5045 0.556344 33.6229 0.823864 33.6229 1.13636C33.6229 1.44886 33.5045 1.71638 33.2678 1.93892C33.0358 2.16146 32.7564 2.27273 32.4297 2.27273Z" fill="#F7F7F7"/>
<path d="M30.3651 4.09082L26.331 14.9999H24.6264L20.5923 4.09082H22.4105L25.4219 12.784H25.5355L28.5469 4.09082H30.3651Z" fill="#F7F7F7"/>
<path d="M14.7759 15.2558C14.0846 15.2558 13.4573 15.1256 12.8938 14.8652C12.3304 14.6 11.8829 14.2189 11.5515 13.7217C11.22 13.2198 11.0543 12.6137 11.0543 11.9035C11.0543 11.2785 11.1774 10.7719 11.4236 10.3836C11.6699 9.99064 11.9989 9.68288 12.4109 9.46034C12.8228 9.2378 13.2773 9.07208 13.7745 8.96318C14.2764 8.84954 14.7806 8.75958 15.2873 8.69329C15.9502 8.60807 16.4876 8.54414 16.8995 8.50153C17.3162 8.45418 17.6192 8.37606 17.8086 8.26716C18.0027 8.15825 18.0998 7.96886 18.0998 7.69897V7.64216C18.0998 6.9414 17.908 6.39689 17.5245 6.00863C17.1457 5.62038 16.5704 5.42625 15.7986 5.42625C14.9985 5.42625 14.3711 5.60144 13.9165 5.95181C13.462 6.30219 13.1424 6.67625 12.9577 7.07397L11.3668 6.50579C11.6509 5.84291 12.0297 5.32681 12.5032 4.9575C12.9814 4.58344 13.5022 4.32303 14.0657 4.17625C14.6339 4.02473 15.1926 3.94897 15.7418 3.94897C16.0922 3.94897 16.4947 3.99159 16.9492 4.07681C17.4085 4.15731 17.8512 4.32539 18.2773 4.58108C18.7082 4.83676 19.0657 5.22265 19.3498 5.73875C19.6339 6.25484 19.7759 6.94613 19.7759 7.81261V15.0001H18.0998V13.5228H18.0146C17.9009 13.7596 17.7115 14.0129 17.4464 14.2828C17.1812 14.5527 16.8285 14.7823 16.3881 14.9717C15.9478 15.1611 15.4104 15.2558 14.7759 15.2558ZM15.0316 13.7501C15.6945 13.7501 16.2532 13.6199 16.7077 13.3595C17.167 13.0991 17.5127 12.7629 17.7447 12.351C17.9814 11.939 18.0998 11.5058 18.0998 11.0512V9.51716C18.0288 9.60238 17.8725 9.68051 17.631 9.75153C17.3943 9.81782 17.1197 9.877 16.8072 9.92909C16.4994 9.97644 16.1987 10.019 15.9052 10.0569C15.6163 10.0901 15.382 10.1185 15.2021 10.1422C14.7664 10.199 14.3592 10.2913 13.9805 10.4191C13.6064 10.5423 13.3034 10.7293 13.0714 10.9802C12.8441 11.2264 12.7305 11.5626 12.7305 11.9887C12.7305 12.5711 12.9459 13.0115 13.3768 13.3098C13.8124 13.6033 14.364 13.7501 15.0316 13.7501Z" fill="#F7F7F7"/>
<path d="M0 15V0.45459H4.91477C6.05114 0.45459 6.9839 0.648718 7.71307 1.03698C8.44224 1.4205 8.98201 1.94843 9.33239 2.62078C9.68277 3.29313 9.85795 4.05781 9.85795 4.91482C9.85795 5.77182 9.68277 6.53177 9.33239 7.19465C8.98201 7.85753 8.4446 8.37836 7.72017 8.75715C6.99574 9.1312 6.07008 9.31823 4.94318 9.31823H0.965909V7.72732H4.88636C5.66288 7.72732 6.28788 7.61368 6.76136 7.38641C7.23958 7.15914 7.58523 6.83717 7.7983 6.4205C8.0161 5.9991 8.125 5.4972 8.125 4.91482C8.125 4.33243 8.0161 3.82343 7.7983 3.38783C7.58049 2.95222 7.23248 2.61605 6.75426 2.37931C6.27604 2.13783 5.64394 2.01709 4.85795 2.01709H1.76136V15H0ZM6.84659 8.46595L10.4261 15H8.38068L4.85795 8.46595H6.84659Z" fill="#F7F7F7"/>
</svg>
